<svg id="mussa_logo" xmlns="http://www.w3.org/2000/svg" xmlns:xlink="http://www.w3.org/1999/xlink" viewBox="0 0 348.98 471.63"><defs><style>.cls-1{fill:url(#linear-gradient);}.cls-2{fill:#a7a9ac;}.cls-3{fill:#e53535;}.cls-4{fill:#e48625;}.cls-5{fill:#e2a428;}.cls-6{fill:none;}.cls-7{font-size:16.45px;fill:#ababab;font-family:SFProDisplay-Thin, SF Pro Display;font-weight:200;letter-spacing:0.05em;}.cls-8{fill:#1e1e1e;}.cls-9{fill:#ddd;}</style><linearGradient id="linear-gradient" x1="324.47" y1="102.28" x2="128.18" y2="102.28" gradientUnits="userSpaceOnUse"><stop offset="0" stop-color="#a7a9ac"/><stop offset="0.48" stop-color="#fff"/><stop offset="0.66" stop-color="#f5f5f5"/><stop offset="1" stop-color="#e6e7e8"/></linearGradient></defs><title>MUSSA_ALPHA</title><g id="MUSSA_TEXT" data-name="MUSSA TEXT"><path class="cls-1" d="M293.67,121.77q0,7.58-.47,14.87c-.07,1-.13,2-.21,3a213,213,0,0,1-2.95,22.6c-.19,1-.39,2-.59,3a159.7,159.7,0,0,1-7.17,25.1H250.42c-.4-32.2-3.08-57.09-6.29-57.09s-5.88,24.89-6.29,57.09H206a161.9,161.9,0,0,1-7.16-25.1c-.21-1-.4-2-.59-3-.14-.75-.28-1.51-.4-2.27-1.15-6.5-2-13.29-2.55-20.33-.07-1-.14-2-.22-3q-.45-7.29-.46-14.87v-.11c0-28,11-53.45,22.65-72.57a193.67,193.67,0,0,1,26.89-34.91A193.38,193.38,0,0,1,271,49.09C282.65,68.23,293.67,93.74,293.67,121.77Z" transform="translate(-97.88 -14.18)"/><path class="cls-2" d="M237.79,198.88c0,2.89,0,5.73.05,8.5H206v-17h31.87C237.82,193.17,237.79,196,237.79,198.88Z" transform="translate(-97.88 -14.18)"/><path class="cls-2" d="M282.28,190.38v17H250.42c0-2.77,0-5.61,0-8.5s0-5.71,0-8.5Z" transform="translate(-97.88 -14.18)"/><path class="cls-3" d="M250.47,201.43q0,4.35,0,8.5c-.4,32.22-3.08,57.09-6.3,57.09s-5.87-24.87-6.28-57.09q0-4.16,0-8.5c0-2.87,0-5.71,0-8.49.41-32.2,3.07-57.09,6.28-57.09s5.9,24.89,6.3,57.09C250.46,195.72,250.47,198.56,250.47,201.43Z" transform="translate(-97.88 -14.18)"/><path class="cls-3" d="M197.82,160a64.7,64.7,0,0,0-58.41,37.71,2.7,2.7,0,0,1-5.13-.64,64.74,64.74,0,0,1,60.31-75.4v.11q0,7.58.46,14.87c.08,1,.15,2,.22,3C195.81,146.7,196.67,153.49,197.82,160Z" transform="translate(-97.88 -14.18)"/><path class="cls-3" d="M290.45,160a64.7,64.7,0,0,1,58.41,37.71,2.7,2.7,0,0,0,5.13-.64,64.74,64.74,0,0,0-60.31-75.4v.11q0,7.58-.46,14.87c-.08,1-.15,2-.22,3C292.46,146.7,291.6,153.49,290.45,160Z" transform="translate(-97.88 -14.18)"/><path class="cls-4" d="M308.93,292.14c0,19.32-8.14,36.49-20.75,47.31a65.83,65.83,0,0,0-3.54-20.7,61.66,61.66,0,0,0-6.23-13,61.83,61.83,0,0,1-13.52,27.88,51.52,51.52,0,0,1-22.76,15.48c-13-4.29-24-14.18-30.62-27.22a64.8,64.8,0,0,1-7-28.89c0-.28,0-.56,0-.85a66.41,66.41,0,0,1,2.16-16.91,61.13,61.13,0,0,1,12.64-24.43,52.67,52.67,0,0,0-19.63,15.86,58.1,58.1,0,0,0-5.09,7.77,65.75,65.75,0,0,1,2.16-13.7,61.19,61.19,0,0,1,12.63-24.18,51.51,51.51,0,0,1,22.15-15.27,42.93,42.93,0,0,0-6.64,23.19,45,45,0,0,0,.78,8.37c.27,1.36.59,2.71,1,4,.11.37.21.73.33,1.08A38.26,38.26,0,0,0,244,279.7a36.33,36.33,0,0,0,11.9-11.18,38.86,38.86,0,0,0,2.74-4.69,42.17,42.17,0,0,0,3.52-10.17,39.8,39.8,0,0,1,15.12,24.77c8.77-5.88,15.05-16,16.66-27.9A63.48,63.48,0,0,1,308.93,292.14Z" transform="translate(-97.88 -14.18)"/><path class="cls-5" d="M268.07,295.8a36.32,36.32,0,0,1-4,11.54l0,0a33.46,33.46,0,0,1-21.75,16.44c-.83-.11-1.67-.27-2.5-.44-14.35-3.13-25.08-14.87-28.06-28.88a37.57,37.57,0,0,1-.31-14.12,34.63,34.63,0,0,1,15.18-23.5c.11.37.21.73.33,1.08a35.07,35.07,0,0,0-1.46,5.77,38.14,38.14,0,0,0,8.42,30.78,34.21,34.21,0,0,0,22-26,38.86,38.86,0,0,0,2.74-4.69A38.21,38.21,0,0,1,268.07,295.8Z" transform="translate(-97.88 -14.18)"/><path class="cls-3" d="M271,49.09H217.24a201.78,201.78,0,0,1,24.93-32.9,2.71,2.71,0,0,1,3.92,0A201.32,201.32,0,0,1,271,49.09Z" transform="translate(-97.88 -14.18)"/><path class="cls-6" d="M198.22,162.27h40.66c-.07,1-.14,2-.2,3H198.81C198.61,164.28,198.41,163.28,198.22,162.27Z" transform="translate(-97.88 -14.18)"/><path class="cls-6" d="M290,162.27c-.19,1-.39,2-.59,3H249.58c-.06-1-.13-2-.2-3Z" transform="translate(-97.88 -14.18)"/><path class="cls-6" d="M195.05,136.65h47.08c-.25.85-.49,1.86-.72,3H195.27C195.19,138.66,195.12,137.66,195.05,136.65Z" transform="translate(-97.88 -14.18)"/><path class="cls-6" d="M293.2,136.65c-.07,1-.13,2-.21,3H246.85c-.23-1.15-.47-2.16-.72-3Z" transform="translate(-97.88 -14.18)"/><text class="cls-7" transform="translate(121.11 107.48)">MUSSA</text></g><g id="MICROSCOPE"><rect class="cls-8" x="108.72" y="348.78" width="87.75" height="26.1" rx="8.94"/><path class="cls-8" d="M265.22,411.34,294,460a17.14,17.14,0,0,1-14.75,25.85h-57.5A17.13,17.13,0,0,1,207,460l28.74-48.63A17.13,17.13,0,0,1,265.22,411.34Z" transform="translate(-97.88 -14.18)"/><path class="cls-8" d="M266.89,58.63a195.75,195.75,0,0,0-36.72.85,17.47,17.47,0,0,0-15.35,18.2h0a17.45,17.45,0,0,0,19.36,16.58A160.25,160.25,0,0,1,253,93.15c89.65,0,162.2,74.65,158.73,165.07-3.17,82.5-70,149.35-152.52,152.51A158.62,158.62,0,0,1,129,351.17a17.36,17.36,0,0,0-14.39-6.44h0a17.5,17.5,0,0,0-12.88,28.39A193.64,193.64,0,0,0,253,445.86c106.5,0,193.21-86.32,193.86-192.66C447.48,151.48,368.37,65.8,266.89,58.63Z" transform="translate(-97.88 -14.18)"/><circle class="cls-9" cx="152.85" cy="411.15" r="9.4"/></g><circle class="cls-5" cx="135.89" cy="62.1" r="9.18"/></svg>