<?xml version="1.0" encoding="UTF-8" standalone="no"?>
<!-- Created with Inkscape (http://www.inkscape.org/) -->

<svg
   width="32"
   height="32"
   viewBox="0 0 32 32"
   version="1.1"
   id="svg5"
   inkscape:version="1.1.1 (3bf5ae0d25, 2021-09-20)"
   sodipodi:docname="linkedin.svg"
   xmlns:inkscape="http://www.inkscape.org/namespaces/inkscape"
   xmlns:sodipodi="http://sodipodi.sourceforge.net/DTD/sodipodi-0.dtd"
   xmlns="http://www.w3.org/2000/svg"
   xmlns:svg="http://www.w3.org/2000/svg">
  <sodipodi:namedview
     id="namedview7"
     pagecolor="#505050"
     bordercolor="#eeeeee"
     borderopacity="1"
     inkscape:pageshadow="0"
     inkscape:pageopacity="0"
     inkscape:pagecheckerboard="0"
     inkscape:document-units="px"
     showgrid="false"
     inkscape:zoom="16.0625"
     inkscape:cx="14.754864"
     inkscape:cy="15.875486"
     inkscape:window-width="1366"
     inkscape:window-height="740"
     inkscape:window-x="0"
     inkscape:window-y="28"
     inkscape:window-maximized="1"
     inkscape:current-layer="layer1" />
  <defs
     id="defs2" />
  <g
     inkscape:label="Layer 1"
     inkscape:groupmode="layer"
     id="layer1">
    <g
       style="fill:none"
       id="g18"
       transform="translate(5.2754248,4.2327277)">
      <path
         d="M 3,5 C 4.10457,5 5,4.10457 5,3 5,1.89543 4.10457,1 3,1 1.89543,1 1,1.89543 1,3 1,4.10457 1.89543,5 3,5 Z"
         stroke="#ffffff"
         stroke-width="2"
         stroke-linecap="round"
         stroke-linejoin="round"
         id="path9" />
    </g>
    <g
       style="fill:none"
       id="g29"
       transform="translate(5.4593606,11.984226)">
      <path
         d="M 5,1 H 1 v 12 h 4 z"
         stroke="#ffffff"
         stroke-width="2"
         stroke-linecap="round"
         stroke-linejoin="round"
         id="path20" />
    </g>
    <g
       style="fill:none"
       id="g40"
       transform="matrix(1.0382349,0,0,0.95573982,14.282395,10.333365)">
      <path
         d="M 7,1 C 8.5913,1 10.1174,1.63214 11.2426,2.75736 12.3679,3.88258 13,5.4087 13,7 v 7 H 9 V 7 C 9,6.46957 8.78929,5.96086 8.41421,5.58579 8.03914,5.21071 7.53043,5 7,5 6.46957,5 5.96086,5.21071 5.58579,5.58579 5.21071,5.96086 5,6.46957 5,7 v 7 H 1 V 7 C 1,5.4087 1.63214,3.88258 2.75736,2.75736 3.88258,1.63214 5.4087,1 7,1 Z"
         stroke="#ffffff"
         stroke-width="2"
         stroke-linecap="round"
         stroke-linejoin="round"
         id="path31" />
    </g>
  </g>
</svg>
